<?xml version="1.0" encoding="utf-8"?><!DOCTYPE svg PUBLIC "-//W3C//DTD SVG 1.1//EN" "http://www.w3.org/Graphics/SVG/1.1/DTD/svg11.dtd"><svg xmlns:xlink="http://www.w3.org/1999/xlink" xmlns="http://www.w3.org/2000/svg" id="map" viewBox="0 0 232 232" width="80" height="80" data-dot="8"><rect x="0" y="0" height="232" width="232" fill="#ffffff00"/><defs><linearGradient id="dot-color" gradientUnits="userSpaceOnUse" x1="16" y1="116" x2="216" y2="116"><stop offset="0%" stop-color="#05f535"/><stop offset="100%" stop-color="#1e6c0e"/></linearGradient></defs><g fill="url('#dot-color')"><circle cx="44" cy="188" r="12" transform="rotate(-90,44,188)"/><path clip-rule="evenodd" class="svgeye" d="M 44 160a 28 28 0 1 0 0.1 0zm 0 8a 20 20 0 1 1 -0.1 0Z" transform="rotate(-90,44,188)"/><circle cx="188" cy="44" r="12" transform="rotate(90,188,44)"/><path clip-rule="evenodd" class="svgeye" d="M 188 16a 28 28 0 1 0 0.1 0zm 0 8a 20 20 0 1 1 -0.1 0Z" transform="rotate(90,188,44)"/><circle cx="44" cy="44" r="12" transform="rotate(0,44,44)"/><path clip-rule="evenodd" class="svgeye" d="M 44 16a 28 28 0 1 0 0.1 0zm 0 8a 20 20 0 1 1 -0.1 0Z" transform="rotate(0,44,44)"/><path d="M 80 16v 8h 4a 4 4, 0, 0, 0, 0 -8" transform="rotate(-90,84,20)"/><path d="M 96 16v 8h 4a 4 4, 0, 0, 0, 0 -8" transform="rotate(180,100,20)"/><path d="M 104 16v 8h 8a 8 8, 0, 0, 0, -8 -8" transform="rotate(0,108,20)"/><path d="M 128 16v 8h 8a 8 8, 0, 0, 0, -8 -8" transform="rotate(-90,132,20)"/><path d="M 136 16v 8h 8a 8 8, 0, 0, 0, -8 -8" transform="rotate(0,140,20)"/><rect x="80" y="24" width="8" height="8" transform="rotate(0,84,28)"/><path d="M 104 24v 8h 8a 8 8, 0, 0, 0, -8 -8" transform="rotate(180,108,28)"/><rect x="112" y="24" width="8" height="8" transform="rotate(0,116,28)"/><rect x="120" y="24" width="8" height="8" transform="rotate(0,124,28)"/><rect x="128" y="24" width="8" height="8" transform="rotate(0,132,28)"/><rect x="136" y="24" width="8" height="8" transform="rotate(0,140,28)"/><rect x="80" y="32" width="8" height="8" transform="rotate(0,84,36)"/><rect x="88" y="32" width="8" height="8" transform="rotate(0,92,36)"/><path d="M 96 32v 8h 4a 4 4, 0, 0, 0, 0 -8" transform="rotate(0,100,36)"/><path d="M 112 32v 8h 4a 4 4, 0, 0, 0, 0 -8" transform="rotate(90,116,36)"/><rect x="136" y="32" width="8" height="8" transform="rotate(0,140,36)"/><rect x="80" y="40" width="8" height="8" transform="rotate(0,84,44)"/><path d="M 104 40v 8h 4a 4 4, 0, 0, 0, 0 -8" transform="rotate(-90,108,44)"/><path d="M 120 40v 8h 4a 4 4, 0, 0, 0, 0 -8" transform="rotate(-90,124,44)"/><rect x="136" y="40" width="8" height="8" transform="rotate(0,140,44)"/><path d="M 144 40v 8h 4a 4 4, 0, 0, 0, 0 -8" transform="rotate(0,148,44)"/><path d="M 80 48v 8h 8a 8 8, 0, 0, 0, -8 -8" transform="rotate(180,84,52)"/><path d="M 88 48v 8h 4a 4 4, 0, 0, 0, 0 -8" transform="rotate(0,92,52)"/><rect x="104" y="48" width="8" height="8" transform="rotate(0,108,52)"/><path d="M 120 48v 8h 8a 8 8, 0, 0, 0, -8 -8" transform="rotate(180,124,52)"/><rect x="128" y="48" width="8" height="8" transform="rotate(0,132,52)"/><rect x="136" y="48" width="8" height="8" transform="rotate(0,140,52)"/><path d="M 96 56v 8h 8a 8 8, 0, 0, 0, -8 -8" transform="rotate(-90,100,60)"/><path d="M 104 56v 8h 8a 8 8, 0, 0, 0, -8 -8" transform="rotate(90,108,60)"/><rect x="128" y="56" width="8" height="8" transform="rotate(0,132,60)"/><rect x="136" y="56" width="8" height="8" transform="rotate(0,140,60)"/><path d="M 144 56v 8h 8a 8 8, 0, 0, 0, -8 -8" transform="rotate(0,148,60)"/><path d="M 80 64v 8h 4a 4 4, 0, 0, 0, 0 -8" transform="rotate(-90,84,68)"/><path d="M 96 64v 8h 4a 4 4, 0, 0, 0, 0 -8" transform="rotate(90,100,68)"/><path d="M 112 64v 8h 4a 4 4, 0, 0, 0, 0 -8" transform="rotate(-90,116,68)"/><path d="M 128 64v 8h 4a 4 4, 0, 0, 0, 0 -8" transform="rotate(90,132,68)"/><path d="M 144 64v 8h 4a 4 4, 0, 0, 0, 0 -8" transform="rotate(90,148,68)"/><path d="M 80 72v 8h 4a 4 4, 0, 0, 0, 0 -8" transform="rotate(90,84,76)"/><path d="M 112 72v 8h 4a 4 4, 0, 0, 0, 0 -8" transform="rotate(90,116,76)"/><circle cx="140" cy="76" r="4" transform="rotate(0,140,76)"/><path d="M 24 80v 8h 4a 4 4, 0, 0, 0, 0 -8" transform="rotate(180,28,84)"/><path d="M 32 80v 8h 8a 8 8, 0, 0, 0, -8 -8" transform="rotate(0,36,84)"/><circle cx="52" cy="84" r="4" transform="rotate(0,52,84)"/><path d="M 64 80v 8h 4a 4 4, 0, 0, 0, 0 -8" transform="rotate(180,68,84)"/><path d="M 72 80v 8h 4a 4 4, 0, 0, 0, 0 -8" transform="rotate(0,76,84)"/><path d="M 88 80v 8h 8a 8 8, 0, 0, 0, -8 -8" transform="rotate(-90,92,84)"/><rect x="96" y="80" width="8" height="8" transform="rotate(0,100,84)"/><path d="M 104 80v 8h 8a 8 8, 0, 0, 0, -8 -8" transform="rotate(0,108,84)"/><path d="M 144 80v 8h 4a 4 4, 0, 0, 0, 0 -8" transform="rotate(-90,148,84)"/><path d="M 160 80v 8h 4a 4 4, 0, 0, 0, 0 -8" transform="rotate(-90,164,84)"/><path d="M 176 80v 8h 4a 4 4, 0, 0, 0, 0 -8" transform="rotate(180,180,84)"/><rect x="184" y="80" width="8" height="8" transform="rotate(0,188,84)"/><rect x="192" y="80" width="8" height="8" transform="rotate(0,196,84)"/><rect x="200" y="80" width="8" height="8" transform="rotate(0,204,84)"/><path d="M 208 80v 8h 8a 8 8, 0, 0, 0, -8 -8" transform="rotate(0,212,84)"/><rect x="32" y="88" width="8" height="8" transform="rotate(0,36,92)"/><path d="M 56 88v 8h 4a 4 4, 0, 0, 0, 0 -8" transform="rotate(-90,60,92)"/><path d="M 80 88v 8h 4a 4 4, 0, 0, 0, 0 -8" transform="rotate(180,84,92)"/><path d="M 88 88v 8h 8a 8 8, 0, 0, 0, -8 -8" transform="rotate(90,92,92)"/><rect x="104" y="88" width="8" height="8" transform="rotate(0,108,92)"/><circle cx="124" cy="92" r="4" transform="rotate(0,124,92)"/><rect x="144" y="88" width="8" height="8" transform="rotate(0,148,92)"/><rect x="160" y="88" width="8" height="8" transform="rotate(0,164,92)"/><rect x="200" y="88" width="8" height="8" transform="rotate(0,204,92)"/><rect x="208" y="88" width="8" height="8" transform="rotate(0,212,92)"/><path d="M 16 96v 8h 4a 4 4, 0, 0, 0, 0 -8" transform="rotate(180,20,100)"/><rect x="24" y="96" width="8" height="8" transform="rotate(0,28,100)"/><rect x="32" y="96" width="8" height="8" transform="rotate(0,36,100)"/><rect x="56" y="96" width="8" height="8" transform="rotate(0,60,100)"/><rect x="64" y="96" width="8" height="8" transform="rotate(0,68,100)"/><path d="M 72 96v 8h 8a 8 8, 0, 0, 0, -8 -8" transform="rotate(0,76,100)"/><path d="M 96 96v 8h 8a 8 8, 0, 0, 0, -8 -8" transform="rotate(-90,100,100)"/><path d="M 104 96v 8h 8a 8 8, 0, 0, 0, -8 -8" transform="rotate(90,108,100)"/><path d="M 128 96v 8h 4a 4 4, 0, 0, 0, 0 -8" transform="rotate(-90,132,100)"/><rect x="144" y="96" width="8" height="8" transform="rotate(0,148,100)"/><rect x="160" y="96" width="8" height="8" transform="rotate(0,164,100)"/><path d="M 168 96v 8h 4a 4 4, 0, 0, 0, 0 -8" transform="rotate(0,172,100)"/><path d="M 184 96v 8h 4a 4 4, 0, 0, 0, 0 -8" transform="rotate(180,188,100)"/><rect x="192" y="96" width="8" height="8" transform="rotate(0,196,100)"/><rect x="200" y="96" width="8" height="8" transform="rotate(0,204,100)"/><rect x="208" y="96" width="8" height="8" transform="rotate(0,212,100)"/><rect x="32" y="104" width="8" height="8" transform="rotate(0,36,108)"/><path d="M 56 104v 8h 4a 4 4, 0, 0, 0, 0 -8" transform="rotate(90,60,108)"/><path d="M 72 104v 8h 8a 8 8, 0, 0, 0, -8 -8" transform="rotate(180,76,108)"/><path d="M 80 104v 8h 4a 4 4, 0, 0, 0, 0 -8" transform="rotate(0,84,108)"/><path d="M 96 104v 8h 4a 4 4, 0, 0, 0, 0 -8" transform="rotate(90,100,108)"/><path d="M 120 104v 8h 4a 4 4, 0, 0, 0, 0 -8" transform="rotate(180,124,108)"/><rect x="128" y="104" width="8" height="8" transform="rotate(0,132,108)"/><rect x="136" y="104" width="8" height="8" transform="rotate(0,140,108)"/><rect x="144" y="104" width="8" height="8" transform="rotate(0,148,108)"/><rect x="152" y="104" width="8" height="8" transform="rotate(0,156,108)"/><rect x="160" y="104" width="8" height="8" transform="rotate(0,164,108)"/><circle cx="180" cy="108" r="4" transform="rotate(0,180,108)"/><path d="M 200 104v 8h 8a 8 8, 0, 0, 0, -8 -8" transform="rotate(180,204,108)"/><rect x="208" y="104" width="8" height="8" transform="rotate(0,212,108)"/><path d="M 32 112v 8h 4a 4 4, 0, 0, 0, 0 -8" transform="rotate(90,36,116)"/><circle cx="68" cy="116" r="4" transform="rotate(0,68,116)"/><path d="M 88 112v 8h 4a 4 4, 0, 0, 0, 0 -8" transform="rotate(-90,92,116)"/><path d="M 104 112v 8h 8a 8 8, 0, 0, 0, -8 -8" transform="rotate(-90,108,116)"/><path d="M 112 112v 8h 8a 8 8, 0, 0, 0, -8 -8" transform="rotate(0,116,116)"/><rect x="128" y="112" width="8" height="8" transform="rotate(0,132,116)"/><rect x="144" y="112" width="8" height="8" transform="rotate(0,148,116)"/><rect x="160" y="112" width="8" height="8" transform="rotate(0,164,116)"/><rect x="208" y="112" width="8" height="8" transform="rotate(0,212,116)"/><circle cx="60" cy="124" r="4" transform="rotate(0,60,124)"/><path d="M 72 120v 8h 8a 8 8, 0, 0, 0, -8 -8" transform="rotate(-90,76,124)"/><rect x="80" y="120" width="8" height="8" transform="rotate(0,84,124)"/><rect x="88" y="120" width="8" height="8" transform="rotate(0,92,124)"/><rect x="96" y="120" width="8" height="8" transform="rotate(0,100,124)"/><rect x="104" y="120" width="8" height="8" transform="rotate(0,108,124)"/><rect x="112" y="120" width="8" height="8" transform="rotate(0,116,124)"/><rect x="120" y="120" width="8" height="8" transform="rotate(0,124,124)"/><rect x="128" y="120" width="8" height="8" transform="rotate(0,132,124)"/><rect x="136" y="120" width="8" height="8" transform="rotate(0,140,124)"/><rect x="144" y="120" width="8" height="8" transform="rotate(0,148,124)"/><rect x="152" y="120" width="8" height="8" transform="rotate(0,156,124)"/><rect x="160" y="120" width="8" height="8" transform="rotate(0,164,124)"/><path d="M 184 120v 8h 4a 4 4, 0, 0, 0, 0 -8" transform="rotate(-90,188,124)"/><rect x="208" y="120" width="8" height="8" transform="rotate(0,212,124)"/><circle cx="20" cy="132" r="4" transform="rotate(0,20,132)"/><path d="M 40 128v 8h 8a 8 8, 0, 0, 0, -8 -8" transform="rotate(-90,44,132)"/><path d="M 48 128v 8h 8a 8 8, 0, 0, 0, -8 -8" transform="rotate(0,52,132)"/><path d="M 64 128v 8h 4a 4 4, 0, 0, 0, 0 -8" transform="rotate(180,68,132)"/><rect x="72" y="128" width="8" height="8" transform="rotate(0,76,132)"/><rect x="80" y="128" width="8" height="8" transform="rotate(0,84,132)"/><rect x="96" y="128" width="8" height="8" transform="rotate(0,100,132)"/><path d="M 112 128v 8h 4a 4 4, 0, 0, 0, 0 -8" transform="rotate(90,116,132)"/><path d="M 128 128v 8h 4a 4 4, 0, 0, 0, 0 -8" transform="rotate(90,132,132)"/><path d="M 160 128v 8h 4a 4 4, 0, 0, 0, 0 -8" transform="rotate(90,164,132)"/><path d="M 176 128v 8h 4a 4 4, 0, 0, 0, 0 -8" transform="rotate(180,180,132)"/><rect x="184" y="128" width="8" height="8" transform="rotate(0,188,132)"/><rect x="192" y="128" width="8" height="8" transform="rotate(0,196,132)"/><rect x="200" y="128" width="8" height="8" transform="rotate(0,204,132)"/><rect x="208" y="128" width="8" height="8" transform="rotate(0,212,132)"/><path d="M 24 136v 8h 4a 4 4, 0, 0, 0, 0 -8" transform="rotate(180,28,140)"/><rect x="32" y="136" width="8" height="8" transform="rotate(0,36,140)"/><rect x="40" y="136" width="8" height="8" transform="rotate(0,44,140)"/><rect x="48" y="136" width="8" height="8" transform="rotate(0,52,140)"/><path d="M 56 136v 8h 8a 8 8, 0, 0, 0, -8 -8" transform="rotate(0,60,140)"/><path d="M 80 136v 8h 4a 4 4, 0, 0, 0, 0 -8" transform="rotate(90,84,140)"/><rect x="96" y="136" width="8" height="8" transform="rotate(0,100,140)"/><path d="M 144 136v 8h 8a 8 8, 0, 0, 0, -8 -8" transform="rotate(-90,148,140)"/><path d="M 152 136v 8h 8a 8 8, 0, 0, 0, -8 -8" transform="rotate(0,156,140)"/><path d="M 168 136v 8h 4a 4 4, 0, 0, 0, 0 -8" transform="rotate(-90,172,140)"/><rect x="208" y="136" width="8" height="8" transform="rotate(0,212,140)"/><circle cx="20" cy="148" r="4" transform="rotate(0,20,148)"/><path d="M 48 144v 8h 8a 8 8, 0, 0, 0, -8 -8" transform="rotate(180,52,148)"/><rect x="56" y="144" width="8" height="8" transform="rotate(0,60,148)"/><rect x="64" y="144" width="8" height="8" transform="rotate(0,68,148)"/><path d="M 72 144v 8h 4a 4 4, 0, 0, 0, 0 -8" transform="rotate(0,76,148)"/><path d="M 96 144v 8h 8a 8 8, 0, 0, 0, -8 -8" transform="rotate(180,100,148)"/><rect x="104" y="144" width="8" height="8" transform="rotate(0,108,148)"/><rect x="112" y="144" width="8" height="8" transform="rotate(0,116,148)"/><rect x="120" y="144" width="8" height="8" transform="rotate(0,124,148)"/><path d="M 128 144v 8h 8a 8 8, 0, 0, 0, -8 -8" transform="rotate(0,132,148)"/><rect x="144" y="144" width="8" height="8" transform="rotate(0,148,148)"/><rect x="152" y="144" width="8" height="8" transform="rotate(0,156,148)"/><rect x="160" y="144" width="8" height="8" transform="rotate(0,164,148)"/><rect x="168" y="144" width="8" height="8" transform="rotate(0,172,148)"/><path d="M 176 144v 8h 8a 8 8, 0, 0, 0, -8 -8" transform="rotate(0,180,148)"/><path d="M 208 144v 8h 4a 4 4, 0, 0, 0, 0 -8" transform="rotate(90,212,148)"/><path d="M 80 152v 8h 4a 4 4, 0, 0, 0, 0 -8" transform="rotate(-90,84,156)"/><path d="M 128 152v 8h 8a 8 8, 0, 0, 0, -8 -8" transform="rotate(180,132,156)"/><rect x="136" y="152" width="8" height="8" transform="rotate(0,140,156)"/><rect x="144" y="152" width="8" height="8" transform="rotate(0,148,156)"/><rect x="176" y="152" width="8" height="8" transform="rotate(0,180,156)"/><path d="M 200 152v 8h 4a 4 4, 0, 0, 0, 0 -8" transform="rotate(-90,204,156)"/><path d="M 80 160v 8h 8a 8 8, 0, 0, 0, -8 -8" transform="rotate(180,84,164)"/><rect x="88" y="160" width="8" height="8" transform="rotate(0,92,164)"/><rect x="96" y="160" width="8" height="8" transform="rotate(0,100,164)"/><path d="M 104 160v 8h 8a 8 8, 0, 0, 0, -8 -8" transform="rotate(0,108,164)"/><path d="M 120 160v 8h 4a 4 4, 0, 0, 0, 0 -8" transform="rotate(-90,124,164)"/><path d="M 136 160v 8h 8a 8 8, 0, 0, 0, -8 -8" transform="rotate(180,140,164)"/><rect x="144" y="160" width="8" height="8" transform="rotate(0,148,164)"/><circle cx="164" cy="164" r="4" transform="rotate(0,164,164)"/><rect x="176" y="160" width="8" height="8" transform="rotate(0,180,164)"/><path d="M 192 160v 8h 4a 4 4, 0, 0, 0, 0 -8" transform="rotate(180,196,164)"/><rect x="200" y="160" width="8" height="8" transform="rotate(0,204,164)"/><path d="M 208 160v 8h 8a 8 8, 0, 0, 0, -8 -8" transform="rotate(0,212,164)"/><path d="M 88 168v 8h 4a 4 4, 0, 0, 0, 0 -8" transform="rotate(90,92,172)"/><rect x="104" y="168" width="8" height="8" transform="rotate(0,108,172)"/><rect x="120" y="168" width="8" height="8" transform="rotate(0,124,172)"/><rect x="144" y="168" width="8" height="8" transform="rotate(0,148,172)"/><rect x="176" y="168" width="8" height="8" transform="rotate(0,180,172)"/><path d="M 200 168v 8h 8a 8 8, 0, 0, 0, -8 -8" transform="rotate(180,204,172)"/><rect x="208" y="168" width="8" height="8" transform="rotate(0,212,172)"/><circle cx="84" cy="180" r="4" transform="rotate(0,84,180)"/><path d="M 96 176v 8h 4a 4 4, 0, 0, 0, 0 -8" transform="rotate(180,100,180)"/><rect x="104" y="176" width="8" height="8" transform="rotate(0,108,180)"/><rect x="112" y="176" width="8" height="8" transform="rotate(0,116,180)"/><rect x="120" y="176" width="8" height="8" transform="rotate(0,124,180)"/><path d="M 128 176v 8h 8a 8 8, 0, 0, 0, -8 -8" transform="rotate(0,132,180)"/><rect x="144" y="176" width="8" height="8" transform="rotate(0,148,180)"/><rect x="152" y="176" width="8" height="8" transform="rotate(0,156,180)"/><rect x="160" y="176" width="8" height="8" transform="rotate(0,164,180)"/><rect x="168" y="176" width="8" height="8" transform="rotate(0,172,180)"/><rect x="176" y="176" width="8" height="8" transform="rotate(0,180,180)"/><path d="M 208 176v 8h 4a 4 4, 0, 0, 0, 0 -8" transform="rotate(90,212,180)"/><circle cx="92" cy="188" r="4" transform="rotate(0,92,188)"/><rect x="112" y="184" width="8" height="8" transform="rotate(0,116,188)"/><rect x="128" y="184" width="8" height="8" transform="rotate(0,132,188)"/><rect x="136" y="184" width="8" height="8" transform="rotate(0,140,188)"/><path d="M 144 184v 8h 8a 8 8, 0, 0, 0, -8 -8" transform="rotate(90,148,188)"/><rect x="176" y="184" width="8" height="8" transform="rotate(0,180,188)"/><circle cx="196" cy="188" r="4" transform="rotate(0,196,188)"/><path d="M 80 192v 8h 4a 4 4, 0, 0, 0, 0 -8" transform="rotate(-90,84,196)"/><path d="M 112 192v 8h 4a 4 4, 0, 0, 0, 0 -8" transform="rotate(90,116,196)"/><rect x="128" y="192" width="8" height="8" transform="rotate(0,132,196)"/><rect x="136" y="192" width="8" height="8" transform="rotate(0,140,196)"/><path d="M 160 192v 8h 8a 8 8, 0, 0, 0, -8 -8" transform="rotate(-90,164,196)"/><rect x="168" y="192" width="8" height="8" transform="rotate(0,172,196)"/><rect x="176" y="192" width="8" height="8" transform="rotate(0,180,196)"/><path d="M 184 192v 8h 8a 8 8, 0, 0, 0, -8 -8" transform="rotate(0,188,196)"/><circle cx="212" cy="196" r="4" transform="rotate(0,212,196)"/><path d="M 80 200v 8h 8a 8 8, 0, 0, 0, -8 -8" transform="rotate(180,84,204)"/><rect x="88" y="200" width="8" height="8" transform="rotate(0,92,204)"/><path d="M 96 200v 8h 8a 8 8, 0, 0, 0, -8 -8" transform="rotate(0,100,204)"/><path d="M 120 200v 8h 4a 4 4, 0, 0, 0, 0 -8" transform="rotate(180,124,204)"/><rect x="128" y="200" width="8" height="8" transform="rotate(0,132,204)"/><rect x="136" y="200" width="8" height="8" transform="rotate(0,140,204)"/><rect x="144" y="200" width="8" height="8" transform="rotate(0,148,204)"/><rect x="152" y="200" width="8" height="8" transform="rotate(0,156,204)"/><rect x="160" y="200" width="8" height="8" transform="rotate(0,164,204)"/><path d="M 168 200v 8h 8a 8 8, 0, 0, 0, -8 -8" transform="rotate(90,172,204)"/><path d="M 184 200v 8h 4a 4 4, 0, 0, 0, 0 -8" transform="rotate(90,188,204)"/><path d="M 200 200v 8h 4a 4 4, 0, 0, 0, 0 -8" transform="rotate(-90,204,204)"/><path d="M 96 208v 8h 8a 8 8, 0, 0, 0, -8 -8" transform="rotate(180,100,212)"/><path d="M 104 208v 8h 4a 4 4, 0, 0, 0, 0 -8" transform="rotate(0,108,212)"/><path d="M 136 208v 8h 8a 8 8, 0, 0, 0, -8 -8" transform="rotate(180,140,212)"/><rect x="144" y="208" width="8" height="8" transform="rotate(0,148,212)"/><rect x="152" y="208" width="8" height="8" transform="rotate(0,156,212)"/><path d="M 160 208v 8h 8a 8 8, 0, 0, 0, -8 -8" transform="rotate(90,164,212)"/><circle cx="180" cy="212" r="4" transform="rotate(0,180,212)"/><path d="M 200 208v 8h 8a 8 8, 0, 0, 0, -8 -8" transform="rotate(180,204,212)"/><path d="M 208 208v 8h 4a 4 4, 0, 0, 0, 0 -8" transform="rotate(0,212,212)"/></g></svg>